<svg xmlns="http://www.w3.org/2000/svg" width="107.983" height="107.983" viewBox="0 0 107.983 107.983"><defs><style>.a{fill:#e3e7f2;}.b{fill:#a4c2f7;}.c{fill:#f5f5f5;}.d{fill:#7fabfa;}.e{fill:#fff;}.f{fill:#efd2ff;}.g{fill:#f1eaf4;}.h{fill:#7821a0;}.i{fill:#264ecc;}.j{fill:#428dff;}</style></defs><g transform="translate(138.641 -538.191)"><path class="a" d="M-116.77,647.152h-12.6a7.2,7.2,0,0,1-7.2-7.2v-12.6Z" transform="translate(-0.274 -11.776)"/><path class="b" d="M-39.383,555.758v18h-97.184v-18a7.2,7.2,0,0,1,7.2-7.2h82.787A7.2,7.2,0,0,1-39.383,555.758Z" transform="translate(-0.274 -1.369)"/><path class="a" d="M-44.781,555.758v18h-91.786v-18a7.2,7.2,0,0,1,7.2-7.2H-51.98A7.2,7.2,0,0,1-44.781,555.758Z" transform="translate(-0.274 -1.369)"/><path class="a" d="M-39.383,577.589v33.295l-44.093,29.7H-116.77l-19.8-19.8V577.589Z" transform="translate(-0.274 -5.203)"/><path class="c" d="M-44.781,577.589v33.295l-37.794,29.7H-116.77l-19.8-19.8V577.589Z" transform="translate(-0.274 -5.203)"/><path class="d" d="M-36.605,562.252a5.4,5.4,0,0,1-5.4,5.4,5.4,5.4,0,0,1-5.4-5.4,5.4,5.4,0,0,1,5.4-5.4A5.4,5.4,0,0,1-36.605,562.252Z" transform="translate(-12.05 -2.465)"/><path class="d" d="M-76,562.252a5.4,5.4,0,0,1-5.4,5.4,5.4,5.4,0,0,1-5.4-5.4,5.4,5.4,0,0,1,5.4-5.4A5.4,5.4,0,0,1-76,562.252Z" transform="translate(-6.846 -2.465)"/><path class="d" d="M-115.4,562.252a5.4,5.4,0,0,1-5.4,5.4,5.4,5.4,0,0,1-5.4-5.4,5.4,5.4,0,0,1,5.4-5.4A5.4,5.4,0,0,1-115.4,562.252Z" transform="translate(-1.643 -2.465)"/><path class="e" d="M-60.057,634.23a1.8,1.8,0,0,1-1.8-1.8v-3.276a1.8,1.8,0,0,1,1.8-1.8,1.8,1.8,0,0,1,1.8,1.8v3.276A1.8,1.8,0,0,1-60.057,634.23Z" transform="translate(-10.141 -11.776)"/><path class="d" d="M-116.77,634.554v12.6l-19.8-19.8h12.6A7.2,7.2,0,0,1-116.77,634.554Z" transform="translate(-0.274 -11.776)"/><path class="b" d="M-42.552,593.641v-3.348a4.367,4.367,0,0,0-1.314-3.113,4.565,4.565,0,0,0-3.185-1.3,4.46,4.46,0,0,0-4.5,4.409v3.383" transform="translate(-11.502 -6.299)"/><path class="f" d="M-24.243,635.409v5.885a1.466,1.466,0,0,1-.423,1.041,1.467,1.467,0,0,1-1.035.436H-74.977a1.465,1.465,0,0,1-1.034-.436,1.467,1.467,0,0,1-.424-1.041v-5.885a1.468,1.468,0,0,1,1.4-1.475h.053a5.71,5.71,0,0,0,4.1-1.728,5.889,5.889,0,0,0,1.692-4.157V613.9a20.207,20.207,0,0,1,6.335-14.614,18.678,18.678,0,0,1,8.152-4.552,17.618,17.618,0,0,1,4.374-.559,18.211,18.211,0,0,1,4.337.523,18.715,18.715,0,0,1,8.962,5.093A19.167,19.167,0,0,1-31.5,613.326v14.722a5.838,5.838,0,0,0,1.677,4.144,5.84,5.84,0,0,0,4.118,1.741,1.468,1.468,0,0,1,1.035.436A1.466,1.466,0,0,1-24.243,635.409Z" transform="translate(-8.216 -7.394)"/><path class="g" d="M-29.641,639.556v3.762H-74.977a1.465,1.465,0,0,1-1.034-.436,1.467,1.467,0,0,1-.424-1.041V636.5a1.165,1.165,0,0,0,.162-.144,5.958,5.958,0,0,0,1.242-1.871h.053a5.71,5.71,0,0,0,4.1-1.728,5.889,5.889,0,0,0,1.692-4.157V614.45a20.207,20.207,0,0,1,6.335-14.614,16.068,16.068,0,0,1,2.754-.953,17.614,17.614,0,0,1,4.373-.559,18.265,18.265,0,0,1,4.338.523,18.72,18.72,0,0,1,8.962,5.093,19.172,19.172,0,0,1,5.524,13.534V632.2a5.836,5.836,0,0,0,1.678,4.144,5.838,5.838,0,0,0,4.117,1.741,1.466,1.466,0,0,1,1.035.436A1.467,1.467,0,0,1-29.641,639.556Z" transform="translate(-8.216 -7.942)"/><path class="f" d="M-39,650.164a8.848,8.848,0,0,1-8.692,9A8.148,8.148,0,0,1-50.1,658.8a8.767,8.767,0,0,1-5.561-5.057,9.224,9.224,0,0,1-.72-3.581Z" transform="translate(-10.864 -14.788)"/><path class="g" d="M-43.8,650.164a8.94,8.94,0,0,1-6.3,8.639,8.767,8.767,0,0,1-5.561-5.057,9.224,9.224,0,0,1-.72-3.581Z" transform="translate(-10.864 -14.788)"/><g transform="translate(-138.641 538.191)"><path class="e" d="M-79.056,539.991a1.8,1.8,0,0,0-1.8-1.8,1.8,1.8,0,0,0-1.8,1.8v7.2h3.6Z" transform="translate(131.247 -538.191)"/><path class="e" d="M-39.657,539.991a1.8,1.8,0,0,0-1.8-1.8,1.8,1.8,0,0,0-1.8,1.8v7.2h3.6Z" transform="translate(126.044 -538.191)"/><path class="e" d="M-50.1,658.8a8.148,8.148,0,0,0,2.412.359,8.356,8.356,0,0,0,2.665-.475,8.777,8.777,0,0,1-5.239-4.942,9.224,9.224,0,0,1-.72-3.581h-5.4a9.224,9.224,0,0,0,.72,3.581A8.767,8.767,0,0,0-50.1,658.8Z" transform="translate(127.777 -552.979)"/><path class="e" d="M-118.453,539.991a1.8,1.8,0,0,0-1.8-1.8,1.8,1.8,0,0,0-1.8,1.8v7.2h3.6Z" transform="translate(136.45 -538.191)"/><path class="e" d="M-129.368,636.745h5.4a7.2,7.2,0,0,1-7.2-7.2V555.758a7.2,7.2,0,0,1,7.2-7.2h-5.4a7.2,7.2,0,0,0-7.2,7.2v73.789A7.2,7.2,0,0,0-129.368,636.745Z" transform="translate(138.367 -539.56)"/><path class="e" d="M-135.042,590.03v27h-3.6v-27Z" transform="translate(138.641 -545.037)"/></g><path class="h" d="M-25.974,630.764a4.046,4.046,0,0,1-4-4.085V611.957a20.887,20.887,0,0,0-6.043-14.8,20.543,20.543,0,0,0-8.3-5.1v-2.043a6.2,6.2,0,0,0-1.857-4.409,6.418,6.418,0,0,0-4.443-1.8,6.26,6.26,0,0,0-6.3,6.208v2.07a21.755,21.755,0,0,0-14.344,20.445v14.146a4.1,4.1,0,0,1-1.177,2.9,3.919,3.919,0,0,1-2.819,1.19,3.271,3.271,0,0,0-3.257,3.276v5.885a3.271,3.271,0,0,0,3.257,3.276h14.3a10.685,10.685,0,0,0,.7,2.468,10.474,10.474,0,0,0,9.634,6.531,10.592,10.592,0,0,0,10.334-9h14.3a3.269,3.269,0,0,0,3.257-3.276V634.04A3.269,3.269,0,0,0-25.974,630.764Zm-24.638-43.355a2.773,2.773,0,0,1,1.927.783,2.567,2.567,0,0,1,.773,1.826V591.2a19.737,19.737,0,0,0-5.4.018v-1.2A2.657,2.657,0,0,1-50.612,587.409Zm0,61.19a6.89,6.89,0,0,1-6.317-4.33,7.434,7.434,0,0,1-.332-1.069h13.3A6.948,6.948,0,0,1-50.612,648.6Zm24.3-9H-74.908v-5.244a7.507,7.507,0,0,0,5.039-2.258,7.678,7.678,0,0,0,2.213-5.419V612.533a18.03,18.03,0,0,1,13.138-17.425,16.107,16.107,0,0,1,7.845-.027,16.916,16.916,0,0,1,8.1,4.608,17.322,17.322,0,0,1,5,12.268v14.722a7.657,7.657,0,0,0,7.253,7.678Z" transform="translate(-7.942 -6.025)"/><path class="h" d="M-48.4,600.4a12.181,12.181,0,0,0-3.031.389,14.577,14.577,0,0,0-10.438,13.937v3.671a1.8,1.8,0,0,0,1.8,1.8,1.8,1.8,0,0,0,1.8-1.8v-3.671a10.88,10.88,0,0,1,7.724-10.452A8.722,8.722,0,0,1-48.4,604a1.8,1.8,0,0,0,1.8-1.8A1.8,1.8,0,0,0-48.4,600.4Z" transform="translate(-10.14 -8.216)"/><path class="h" d="M-60.057,627.355a1.8,1.8,0,0,0-1.8,1.8v3.276a1.8,1.8,0,0,0,1.8,1.8,1.8,1.8,0,0,0,1.8-1.8v-3.276A1.8,1.8,0,0,0-60.057,627.355Z" transform="translate(-10.141 -11.776)"/><path class="i" d="M-136.841,592.182a1.8,1.8,0,0,0,1.8-1.8v-16.2h93.586v14.4a1.8,1.8,0,0,0,1.8,1.8,1.8,1.8,0,0,0,1.8-1.8V554.388a9.009,9.009,0,0,0-9-9h-5.4v-5.4a1.8,1.8,0,0,0-1.8-1.8,1.8,1.8,0,0,0-1.8,1.8v5.4h-30.6v-5.4a1.8,1.8,0,0,0-1.8-1.8,1.8,1.8,0,0,0-1.8,1.8v5.4h-30.595v-5.4a1.8,1.8,0,0,0-1.8-1.8,1.8,1.8,0,0,0-1.8,1.8v5.4h-5.4a9.01,9.01,0,0,0-9,9v35.994a1.8,1.8,0,0,0,.528,1.273A1.8,1.8,0,0,0-136.841,592.182Zm7.2-43.193h5.4v3.855a7.2,7.2,0,0,0-5.342,7.877,7.2,7.2,0,0,0,7.142,6.292,7.2,7.2,0,0,0,7.14-6.292,7.2,7.2,0,0,0-5.341-7.877v-3.855h30.595v3.855a7.2,7.2,0,0,0-5.341,7.877,7.2,7.2,0,0,0,7.141,6.292,7.2,7.2,0,0,0,7.141-6.292,7.2,7.2,0,0,0-5.342-7.877v-3.855h30.6v3.855a7.2,7.2,0,0,0-5.342,7.877,7.2,7.2,0,0,0,7.141,6.292,7.2,7.2,0,0,0,7.142-6.292,7.2,7.2,0,0,0-5.342-7.877v-3.855h5.4a5.4,5.4,0,0,1,5.4,5.4v16.2h-93.586v-16.2A5.4,5.4,0,0,1-129.642,548.989Zm7.2,10.8a1.8,1.8,0,0,0,1.8-1.8v-1.3a3.6,3.6,0,0,1,1.677,4.048,3.6,3.6,0,0,1-3.476,2.668,3.6,3.6,0,0,1-3.477-2.668,3.6,3.6,0,0,1,1.677-4.048v1.3A1.8,1.8,0,0,0-122.443,559.788Zm34.194,0a1.8,1.8,0,0,0,1.8-1.8v-1.3a3.6,3.6,0,0,1,1.678,4.048,3.6,3.6,0,0,1-3.477,2.668,3.6,3.6,0,0,1-3.476-2.668,3.6,3.6,0,0,1,1.676-4.048v1.3A1.8,1.8,0,0,0-88.249,559.788Zm34.195,0a1.8,1.8,0,0,0,1.8-1.8v-1.3a3.6,3.6,0,0,1,1.677,4.048,3.6,3.6,0,0,1-3.477,2.668,3.6,3.6,0,0,1-3.477-2.668,3.6,3.6,0,0,1,1.678-4.048v1.3A1.8,1.8,0,0,0-54.054,559.788Z"/><path class="j" d="M-136.155,604.689a1.188,1.188,0,0,0-.325-.108,2.627,2.627,0,0,0-.359-.036,1.894,1.894,0,0,0-1.278.522,1.839,1.839,0,0,0-.378.593,1.838,1.838,0,0,0,.378,1.962,1.854,1.854,0,0,0,.594.378,1.8,1.8,0,0,0,.684.144,1.894,1.894,0,0,0,1.278-.522,1.826,1.826,0,0,0,0-2.555l-.271-.217A1.448,1.448,0,0,0-136.155,604.689Z" transform="translate(-0.002 -8.763)"/><path class="i" d="M-129.642,643.474h37.794a1.8,1.8,0,0,0,1.8-1.8,1.8,1.8,0,0,0-1.8-1.8h-23.4v-7.2h23.4a1.8,1.8,0,0,0,1.8-1.8,1.8,1.8,0,0,0-1.8-1.8h-1.8v-10.8h8.873a1.8,1.8,0,0,0,1.8-1.8,1.8,1.8,0,0,0-1.8-1.8h-8.873v-10.8h10.8a1.8,1.8,0,0,0,1.8-1.8,1.8,1.8,0,0,0-1.8-1.8h-10.8v-10.8h12.6v7.2a1.8,1.8,0,0,0,1.8,1.8,1.8,1.8,0,0,0,1.8-1.8v-7.2h7.2a1.8,1.8,0,0,0,1.8-1.8,1.8,1.8,0,0,0-1.8-1.8h-55.791a3.6,3.6,0,0,0-3.6,3.6v30.6h-5.4v-9a1.8,1.8,0,0,0-1.8-1.8,1.8,1.8,0,0,0-1.8,1.8v23.4A9.009,9.009,0,0,0-129.642,643.474Zm32.395-14.4h-12.6v-10.8h12.6Zm0-14.4h-12.6v-10.8h12.6Zm-28.795-10.8h12.6v10.8h-12.6Zm28.795-3.6h-12.6v-10.8h12.6Zm-16.2-10.8v10.8h-12.6v-10.8Zm-12.6,28.8h12.6v10.8h-1.8a9.01,9.01,0,0,0-9-9h-1.8Zm1.8,5.4a5.4,5.4,0,0,1,5.4,5.4v8.253L-132.5,623.677Zm2.855,16.2h-8.254a5.4,5.4,0,0,1-5.4-5.4v-8.254Z" transform="translate(0 -6.299)"/></g></svg>