<svg xmlns="http://www.w3.org/2000/svg" width="19.59" height="18.976" viewBox="0 0 19.59 18.976"><defs><style>.a{fill:#c4c4c4;}</style></defs><g transform="translate(0.998 -8.983)"><path class="a" d="M300.522,303.543l-1.856-1.856-3.84,3.84a4.656,4.656,0,0,1-2.48,1.3l2.447,2.447a.574.574,0,0,0,.812,0l4.918-4.918A.574.574,0,0,0,300.522,303.543Z" transform="translate(-282.098 -281.483)"/><path class="a" d="M15.812,46.063a1.662,1.662,0,0,0,0-2.347l0,0a1.658,1.658,0,0,0-.55-.365,1.662,1.662,0,0,0-.371-1.785l0,0a1.659,1.659,0,0,0-.547-.362,1.662,1.662,0,0,0-.37-1.785h0a1.656,1.656,0,0,0-.551-.366,1.662,1.662,0,0,0-.371-1.785h0a1.662,1.662,0,0,0-2.348,0L9.609,38.348l.556.556A2.379,2.379,0,0,1,9.052,42.9a2.379,2.379,0,0,1-1.738,1.739,2.383,2.383,0,0,1-1.74,1.74,2.379,2.379,0,0,1-3.991,1.112l-.556-.556L-.83,48.787a.574.574,0,0,0,0,.812l4.918,4.918a.574.574,0,0,0,.812,0L8.42,51h.992a3.519,3.519,0,0,0,2.5-1.037Z" transform="translate(0 -26.726)"/><path class="a" d="M55.473,49.9a1.23,1.23,0,0,0,1.74-1.74,1.23,1.23,0,0,0,1.74-1.74,1.23,1.23,0,0,0,1.74-1.74,1.23,1.23,0,0,0,1.74-1.74l-2.453-2.453a1.23,1.23,0,0,0-1.74,1.74l.307.307a1.23,1.23,0,0,0-1.74,1.74l.615.615a1.23,1.23,0,0,0-1.74,1.74l.615.615a1.23,1.23,0,1,0-1.74,1.74Z" transform="translate(-53.078 -29.95)"/><path class="a" d="M229.039,9.722a2.839,2.839,0,0,1,.268-.235l-.336-.336a.574.574,0,0,0-.662-.108l-1.417.708,1.059,1.059Z" transform="translate(-219.153 0)"/></g></svg>