<svg xmlns="http://www.w3.org/2000/svg" width="207" height="181" viewBox="0 0 207 181">
  <g id="Grupo_3" data-name="Grupo 3" transform="translate(656.176 -767.563)">
    <ellipse id="Elipse_2" data-name="Elipse 2" cx="12" cy="11.5" rx="12" ry="11.5" transform="translate(-656.176 767.563)" fill="#f3f2f5"/>
    <ellipse id="Elipse_20" data-name="Elipse 20" cx="12" cy="11.5" rx="12" ry="11.5" transform="translate(-656.176 820.563)" fill="#f3f2f5"/>
    <circle id="Elipse_32" data-name="Elipse 32" cx="12" cy="12" r="12" transform="translate(-656.176 872.563)" fill="#f3f2f5"/>
    <circle id="Elipse_33" data-name="Elipse 33" cx="12" cy="12" r="12" transform="translate(-656.176 924.563)" fill="#f3f2f5"/>
    <ellipse id="Elipse_8" data-name="Elipse 8" cx="12" cy="11.5" rx="12" ry="11.5" transform="translate(-565.176 767.563)" fill="#f3f2f5"/>
    <ellipse id="Elipse_18" data-name="Elipse 18" cx="12" cy="11.5" rx="12" ry="11.5" transform="translate(-565.176 820.563)" fill="#f3f2f5"/>
    <circle id="Elipse_28" data-name="Elipse 28" cx="12" cy="12" r="12" transform="translate(-565.176 872.563)" fill="#f3f2f5"/>
    <circle id="Elipse_29" data-name="Elipse 29" cx="12" cy="12" r="12" transform="translate(-565.176 924.563)" fill="#f3f2f5"/>
    <circle id="Elipse_5" data-name="Elipse 5" cx="11.5" cy="11.5" r="11.5" transform="translate(-610.176 767.563)" fill="#f3f2f5"/>
    <circle id="Elipse_22" data-name="Elipse 22" cx="11.5" cy="11.5" r="11.5" transform="translate(-610.176 820.563)" fill="#f3f2f5"/>
    <ellipse id="Elipse_30" data-name="Elipse 30" cx="11.5" cy="12" rx="11.5" ry="12" transform="translate(-610.176 872.563)" fill="#f3f2f5"/>
    <ellipse id="Elipse_31" data-name="Elipse 31" cx="11.5" cy="12" rx="11.5" ry="12" transform="translate(-610.176 924.563)" fill="#f3f2f5"/>
    <circle id="Elipse_7" data-name="Elipse 7" cx="11.5" cy="11.5" r="11.5" transform="translate(-519.176 767.563)" fill="#f3f2f5"/>
    <circle id="Elipse_16" data-name="Elipse 16" cx="11.5" cy="11.5" r="11.5" transform="translate(-519.176 820.563)" fill="#f3f2f5"/>
    <ellipse id="Elipse_26" data-name="Elipse 26" cx="11.5" cy="12" rx="11.5" ry="12" transform="translate(-519.176 872.563)" fill="#f3f2f5"/>
    <ellipse id="Elipse_27" data-name="Elipse 27" cx="11.5" cy="12" rx="11.5" ry="12" transform="translate(-519.176 924.563)" fill="#f3f2f5"/>
    <ellipse id="Elipse_6" data-name="Elipse 6" cx="12" cy="11.5" rx="12" ry="11.5" transform="translate(-473.176 767.563)" fill="#f3f2f5"/>
    <ellipse id="Elipse_14" data-name="Elipse 14" cx="12" cy="11.5" rx="12" ry="11.5" transform="translate(-473.176 820.563)" fill="#f3f2f5"/>
    <circle id="Elipse_24" data-name="Elipse 24" cx="12" cy="12" r="12" transform="translate(-473.176 872.563)" fill="#f3f2f5"/>
    <circle id="Elipse_25" data-name="Elipse 25" cx="12" cy="12" r="12" transform="translate(-473.176 924.563)" fill="#f3f2f5"/>
  </g>
</svg>
