<svg xmlns="http://www.w3.org/2000/svg" width="17.928" height="17.96" viewBox="0 0 17.928 17.96"><defs><style>.a{fill:#c4c4c4;}</style></defs><g transform="translate(-0.463)"><path class="a" d="M2.417,5.854a2.243,2.243,0,0,1,3.9,1.122.378.378,0,0,0,.372.3h.674A.378.378,0,0,0,7.738,6.9V5.227a.378.378,0,0,1,.378-.378H8.63a1.313,1.313,0,0,0,1.383-1.226A1.311,1.311,0,0,0,8.63,2.4H8.116a.378.378,0,0,1-.378-.378V.378A.378.378,0,0,0,7.361,0H.841A.378.378,0,0,0,.463.378V6.9a.378.378,0,0,0,.378.378H1.49a.38.38,0,0,0,.371-.307,2.427,2.427,0,0,1,.556-1.115Z"/><path class="a" d="M5.411,181.1A2.236,2.236,0,0,1,7.189,179a.746.746,0,0,0,.55-.719v-.056a.746.746,0,0,0-.746-.746H6.058a.746.746,0,0,1-.746-.746v-.1a1.344,1.344,0,0,0-1.261-1.383,1.288,1.288,0,0,0-1.186,1.383v.1a.746.746,0,0,1-.746.746h-.91a.746.746,0,0,0-.746.746v5.83a.746.746,0,0,0,.746.746H6.993a.746.746,0,0,0,.746-.746h0a.74.74,0,0,0-.521-.711A2.438,2.438,0,0,1,5.411,181.1Z" transform="translate(0 -169.104)"/><path class="a" d="M248.75,3.342a1.355,1.355,0,0,0-1.352-.966h-.311a.535.535,0,0,1-.535-.535V.535A.535.535,0,0,0,246.015,0h-6.251a.535.535,0,0,0-.535.535V.9a.534.534,0,0,0,.406.519,2.313,2.313,0,0,1,1.822,2.2,2.318,2.318,0,0,1-1.822,2.207.534.534,0,0,0-.406.519V6.74a.535.535,0,0,0,.535.535h1.4a.535.535,0,0,1,.535.535v.356A1.377,1.377,0,0,0,243,9.549a1.263,1.263,0,0,0,1.151-1.383V7.811a.535.535,0,0,1,.535-.535h1.332a.535.535,0,0,0,.535-.535V5.361a.535.535,0,0,1,.538-.535,1.975,1.975,0,0,0,.925-.132.5.5,0,0,1,.066-.026,1.227,1.227,0,0,0,.669-1.326Z" transform="translate(-230.391)"/><path class="a" d="M180.458,238.766a.638.638,0,0,0-.619.477,2.221,2.221,0,0,1-2.12,1.751,2.4,2.4,0,0,1-2.257-1.77.637.637,0,0,0-.614-.458h-.257a.64.64,0,0,0-.64.64V240.6a.64.64,0,0,1-.64.64h-.2c-.738,0-1.528.463-1.528,1.151a1.53,1.53,0,0,0,1.528,1.3h.2a.64.64,0,0,1,.64.64v1.125a.64.64,0,0,0,.637.64l1.257.007a.641.641,0,0,1,.637.64,1.746,1.746,0,0,0,.192.963,1.2,1.2,0,0,0,1.039.65,1.312,1.312,0,0,0,1.221-1.383v-.233a.64.64,0,0,1,.638-.64l1.064,0a.64.64,0,0,0,.638-.643l-.024-6.043a.64.64,0,0,0-.64-.638Z" transform="translate(-165.112 -230.391)"/></g></svg>