<svg xmlns="http://www.w3.org/2000/svg" width="19.726" height="16.438" viewBox="0 0 19.726 16.438"><defs><style>.a{fill:#c4c4c4;}</style></defs><g transform="translate(0 -42.666)"><g transform="translate(0 42.666)"><g transform="translate(0 0)"><path class="a" d="M18.082,45.132H13.972V44.31a1.645,1.645,0,0,0-1.644-1.644H7.4A1.645,1.645,0,0,0,5.753,44.31v.822H1.644A1.645,1.645,0,0,0,0,46.776v2.466a1.645,1.645,0,0,0,1.644,1.644H8.219v-.411a.411.411,0,0,1,.411-.411H11.1a.411.411,0,0,1,.411.411v.411h6.575a1.645,1.645,0,0,0,1.644-1.644V46.776A1.645,1.645,0,0,0,18.082,45.132Zm-5.753,0H7.4V44.31h4.931Z" transform="translate(0 -42.666)"/><path class="a" d="M19.5,266.427a.411.411,0,0,0-.431.041,1.623,1.623,0,0,1-.985.338H11.507v1.233a.411.411,0,0,1-.411.411H8.63a.411.411,0,0,1-.411-.411v-1.233H1.644a1.623,1.623,0,0,1-.985-.338.411.411,0,0,0-.659.328v5.764A1.645,1.645,0,0,0,1.644,274.2H18.082a1.645,1.645,0,0,0,1.644-1.644v-5.764A.411.411,0,0,0,19.5,266.427Z" transform="translate(0 -257.764)"/></g></g></g></svg>