<svg id="Layer_1" data-name="Layer 1" xmlns="http://www.w3.org/2000/svg" width="21.0999" height="21.0976" viewBox="0 0 21.0999 21.0976"><defs><style>.cls-1{fill:#fff;}</style></defs><path id="Icon_ionic-ios-send" data-name="Icon ionic-ios-send" class="cls-1" d="M20.887.4966.713,9.29a.462.462,0,0,0,.016.841l5.457,3.083a.88.88,0,0,0,1.006-.1l10.757-9.276c.071-.06.242-.176.308-.11s-.038.236-.1.308L8.849,14.5216a.877.877,0,0,0-.088,1.05l3.567,5.721a.4641.4641,0,0,0,.835-.011l8.345-20.175a.463.463,0,0,0-.621-.61Z" transform="translate(-0.4501 -0.4512)"/></svg>