<svg xmlns="http://www.w3.org/2000/svg" width="20.957" height="18.916" viewBox="0 0 20.957 18.916"><defs><style>.a{fill:#c4c4c4;}</style></defs><g transform="translate(-112.958 47.09)"><path class="a" d="M289.934,54.94v2.006a3.235,3.235,0,0,0,6.469,0V54.94Z" transform="translate(-169.732 -97.854)"/><path class="a" d="M237.011-47.09H226.529a.614.614,0,0,0-.614.614.614.614,0,0,0,.614.614h2.006v1.72H235v-1.72H236.4v.7a.614.614,0,0,0,.614.614.614.614,0,0,0,.614-.614v-1.31A.614.614,0,0,0,237.011-47.09Z" transform="translate(-108.334 0)"/><path class="a" d="M444.741,82.772a1.835,1.835,0,0,0,.106-.614v-7.37A1.845,1.845,0,0,0,443,72.946h-2.5v1.269a4.455,4.455,0,0,1-1.6,3.42,12.021,12.021,0,0,1,2.235,5.137Z" transform="translate(-312.608 -115.123)"/><path class="a" d="M157.6,82.772a12.021,12.021,0,0,1,2.235-5.137,4.455,4.455,0,0,1-1.6-3.42V72.946h-2.5a1.845,1.845,0,0,0-1.842,1.842v7.37a1.834,1.834,0,0,0,.106.614Z" transform="translate(-39.26 -115.123)"/><path class="a" d="M128.023,343.026H112.958a3.074,3.074,0,0,0,3.068,2.948h14.822a3.074,3.074,0,0,0,3.068-2.948Z" transform="translate(0 -374.148)"/><path class="a" d="M314.689,205.695l2.316-1.447a4.759,4.759,0,0,0-.507-.627,4.458,4.458,0,0,1-3.617,0,4.751,4.751,0,0,0-.507.627Z" transform="translate(-191.253 -240.448)"/><path class="a" d="M383.962,247.909h3.226a14.37,14.37,0,0,0-.769-2.441q-.075-.174-.152-.338l-2.3,1.44Z" transform="translate(-259.911 -280.259)"/><path class="a" d="M278.36,246.57l-2.3-1.44c-.054.115-.107.234-.16.358a14.366,14.366,0,0,0-.762,2.421h3.226Z" transform="translate(-155.538 -280.259)"/></g></svg>