<svg xmlns="http://www.w3.org/2000/svg" width="109.267" height="117.074" viewBox="0 0 109.267 117.074">
  <g id="Grupo_26" data-name="Grupo 26" transform="translate(430.572 -113.841)">
    <g id="Grupo_14" data-name="Grupo 14" transform="translate(-430.572 113.841)">
      <path id="Trazado_219" data-name="Trazado 219" d="M-411.742,138.846a11.708,11.708,0,0,1-12.371-11,11.708,11.708,0,0,1,11-12.371,10.1,10.1,0,0,1,1.327.018A11.7,11.7,0,0,1-400.735,127.8a11.7,11.7,0,0,1-11.009,11.044Z" transform="translate(431.938 -113.498)" fill="#a4c2f7"/>
      <path id="Trazado_220" data-name="Trazado 220" d="M-417.6,136.9a10.086,10.086,0,0,1-1.326-.019,11.691,11.691,0,0,1-3.252-16.21,11.694,11.694,0,0,1,9.07-5.194,10.1,10.1,0,0,1,1.327.018,11.691,11.691,0,0,1,3.251,16.212A11.692,11.692,0,0,1-417.6,136.9Z" transform="translate(431.937 -113.498)" fill="#d4e1f4"/>
      <path id="Trazado_221" data-name="Trazado 221" d="M-382.769,138.846a11.707,11.707,0,0,1-12.37-11,11.708,11.708,0,0,1,11.005-12.371,10.2,10.2,0,0,1,1.333.018A11.7,11.7,0,0,1-371.754,127.8a11.7,11.7,0,0,1-11.007,11.044Z" transform="translate(438.085 -113.498)" fill="#a4c2f7"/>
      <path id="Trazado_222" data-name="Trazado 222" d="M-388.62,136.9a9.988,9.988,0,0,1-1.333-.019,11.691,11.691,0,0,1-3.252-16.21,11.694,11.694,0,0,1,9.07-5.194,10.191,10.191,0,0,1,1.333.018,11.691,11.691,0,0,1,3.251,16.212A11.692,11.692,0,0,1-388.62,136.9Z" transform="translate(438.083 -113.498)" fill="#d4e1f4"/>
      <path id="Trazado_223" data-name="Trazado 223" d="M-367.666,147.06a13.577,13.577,0,0,0-11.2-5.853h-7.8a13.58,13.58,0,0,0-11.2,5.853l-.507,17.562h29.27Z" transform="translate(437.402 -108.035)" fill="#a4c2f7"/>
      <path id="Trazado_224" data-name="Trazado 224" d="M-396.3,147.06a13.577,13.577,0,0,0-11.2-5.853h-7.8a13.661,13.661,0,0,0-13.658,13.658v5.853a3.914,3.914,0,0,0,3.9,3.9h13.66Z" transform="translate(430.913 -108.035)" fill="#a4c2f7"/>
      <path id="Trazado_225" data-name="Trazado 225" d="M-353.883,164.625h13.66a3.912,3.912,0,0,0,3.9-3.9v-5.853a13.658,13.658,0,0,0-13.658-13.658h-7.8a13.577,13.577,0,0,0-11.2,5.853Z" transform="translate(443.637 -108.035)" fill="#a4c2f7"/>
      <path id="Trazado_226" data-name="Trazado 226" d="M-353.91,138.849a11.646,11.646,0,0,1-7.181-1.952.019.019,0,0,0-.019-.019l-4.526-13.576a11.663,11.663,0,0,1,10.361-7.824,9.885,9.885,0,0,1,1.326.019A11.7,11.7,0,0,1-342.9,127.809a11.7,11.7,0,0,1-11.007,11.044Z" transform="translate(444.348 -113.497)" fill="#a4c2f7"/>
      <path id="Trazado_227" data-name="Trazado 227" d="M-359.762,136.9c-.448.019-.9.019-1.326,0a.02.02,0,0,0-.019-.019l-4.527-13.576a11.664,11.664,0,0,1,10.361-7.824,9.882,9.882,0,0,1,1.326.019,11.693,11.693,0,0,1,3.252,16.211,11.693,11.693,0,0,1-9.07,5.193Z" transform="translate(444.348 -113.497)" fill="#d4e1f4"/>
      <path id="Trazado_228" data-name="Trazado 228" d="M-397.277,143.677a11.707,11.707,0,0,1-12.254-11.136A11.709,11.709,0,0,1-398.643,120.3a10.2,10.2,0,0,1,1.333.019,11.7,11.7,0,0,1,11.046,12.312,11.7,11.7,0,0,1-11.007,11.044Z" transform="translate(435.033 -112.473)" fill="#a4c2f7"/>
      <path id="Trazado_229" data-name="Trazado 229" d="M-368.3,143.677a11.707,11.707,0,0,1-12.254-11.136A11.709,11.709,0,0,1-369.668,120.3a10.078,10.078,0,0,1,1.326.019,11.7,11.7,0,0,1,11.047,12.312A11.7,11.7,0,0,1-368.3,143.677Z" transform="translate(441.18 -112.473)" fill="#a4c2f7"/>
      <path id="Trazado_230" data-name="Trazado 230" d="M-403.107,141.727a9.993,9.993,0,0,1-1.333-.019,11.692,11.692,0,0,1-3.25-16.212,11.691,11.691,0,0,1,9.068-5.193,10.21,10.21,0,0,1,1.335.019,11.692,11.692,0,0,1,3.25,16.212A11.692,11.692,0,0,1-403.107,141.727Z" transform="translate(435.01 -112.473)" fill="#d4e1f4"/>
      <path id="Trazado_231" data-name="Trazado 231" d="M-374.134,141.727a9.879,9.879,0,0,1-1.326-.019,11.691,11.691,0,0,1-3.251-16.212,11.691,11.691,0,0,1,9.068-5.193,10.078,10.078,0,0,1,1.326.019,11.691,11.691,0,0,1,3.251,16.212A11.691,11.691,0,0,1-374.134,141.727Z" transform="translate(441.158 -112.473)" fill="#d4e1f4"/>
      <path id="Trazado_232" data-name="Trazado 232" d="M-371.842,146.039h7.806A13.659,13.659,0,0,1-350.378,159.7v5.853a3.9,3.9,0,0,1-3.9,3.9H-381.6a3.9,3.9,0,0,1-3.9-3.9V159.7A13.658,13.658,0,0,1-371.842,146.039Z" transform="translate(440.134 -107.01)" fill="#a4c2f7"/>
      <path id="Trazado_233" data-name="Trazado 233" d="M-391.061,169.453h7.807a3.912,3.912,0,0,0,3.9-3.9V159.7a13.658,13.658,0,0,0-13.658-13.658h-7.8A13.659,13.659,0,0,0-414.475,159.7h0v5.853a3.914,3.914,0,0,0,3.9,3.9Z" transform="translate(433.987 -107.01)" fill="#a4c2f7"/>
      <path id="Trazado_234" data-name="Trazado 234" d="M-371.841,146.039A13.659,13.659,0,0,1-358.183,159.7h0v5.853a3.9,3.9,0,0,1-3.9,3.9H-381.6a3.9,3.9,0,0,1-3.9-3.9V159.7a13.658,13.658,0,0,1,13.658-13.658Z" transform="translate(440.133 -107.01)" fill="#e3e7f2"/>
      <path id="Trazado_235" data-name="Trazado 235" d="M-396.256,169.453h6.061a3.562,3.562,0,0,0,3.036-3.9V159.7c0-7.552-4.75-13.658-10.622-13.658h-6.072c-5.874,0-10.623,6.108-10.623,13.658v5.853a3.564,3.564,0,0,0,3.03,3.9Z" transform="translate(433.982 -107.01)" fill="#e3e7f2"/>
      <path id="Trazado_236" data-name="Trazado 236" d="M-363.242,178.929a4.877,4.877,0,0,0-3.452-1.424,4.757,4.757,0,0,0-1.737.332,4.839,4.839,0,0,0-3.142,4.546v-1.95A4.888,4.888,0,0,0-373,176.978a5.164,5.164,0,0,0-1.484-1.015,5.1,5.1,0,0,0-1.971-.408,4.74,4.74,0,0,0-1.737.331,4.852,4.852,0,0,0-3.142,4.547v-1.952a4.868,4.868,0,0,0-1.424-3.453,5.117,5.117,0,0,0-1.482-1.015,5.069,5.069,0,0,0-1.971-.41,4.765,4.765,0,0,0-1.737.331,4.852,4.852,0,0,0-3.142,4.547V158.966a4.876,4.876,0,0,0-4.864-4.89c-.121,0-.244,0-.365.012a4.63,4.63,0,0,0-1.4.312,5.307,5.307,0,0,0-3.121,4.879v29.968a1.95,1.95,0,0,1-1.959,1.943,1.956,1.956,0,0,1-1.378-.577l-1.931-1.931a5.724,5.724,0,0,0-.742-.625,4.934,4.934,0,0,0-2.692-.8,5.273,5.273,0,0,0-1.639.273,4.845,4.845,0,0,0-2.049,1.4,5.092,5.092,0,0,0,.448,6.868l4.586,4.586A103.184,103.184,0,0,1-397.642,213.3a17.239,17.239,0,0,0,13.874,7.123h4.878a17.077,17.077,0,0,0,17.072-17.073v-20.97A4.872,4.872,0,0,0-363.242,178.929Z" transform="translate(434.012 -105.305)" fill="#efd2ff"/>
      <path id="Trazado_237" data-name="Trazado 237" d="M-367.671,180.4v20.97a17.078,17.078,0,0,1-17.073,17.072h-4.879a15.214,15.214,0,0,1-2.322-.175,16.753,16.753,0,0,1-5.7-5.016A103.4,103.4,0,0,0-408.2,200.335l-4.586-4.586a5.09,5.09,0,0,1-.449-6.868,4.83,4.83,0,0,1,2.049-1.4,5.261,5.261,0,0,1,1.639-.273,4.939,4.939,0,0,1,2.692.8,5.89,5.89,0,0,1,.742.625l1.931,1.931a1.95,1.95,0,0,0,2.759.011,1.952,1.952,0,0,0,.578-1.377V159.224a5.3,5.3,0,0,1,3.12-4.879,4.863,4.863,0,0,1,.781,2.634v19.516a4.88,4.88,0,0,1,4.878-4.879,5.438,5.438,0,0,1,.971.1v6.712a4.85,4.85,0,0,1,3.142-4.547,4.756,4.756,0,0,1,1.737-.331,5.079,5.079,0,0,1,1.971.41,5.15,5.15,0,0,1,1.482,1.015,4.878,4.878,0,0,1,1.424,3.453v1.952a4.85,4.85,0,0,1,3.142-4.547,4.729,4.729,0,0,1,1.736-.331,5.105,5.105,0,0,1,1.972.409A5.175,5.175,0,0,1-373,176.922a4.888,4.888,0,0,1,1.424,3.453v1.95a4.839,4.839,0,0,1,3.142-4.546A4.783,4.783,0,0,1-367.671,180.4Z" transform="translate(434.013 -105.248)" fill="#f1eaf4"/>
      <path id="Trazado_238" data-name="Trazado 238" d="M-394.818,188.663a1.951,1.951,0,0,1-1.95-1.95v-9.757a1.952,1.952,0,0,1,2-1.9,1.95,1.95,0,0,1,1.9,1.9v9.757A1.951,1.951,0,0,1-394.818,188.663Z" transform="translate(437.743 -100.855)" fill="#f09372"/>
      <path id="Trazado_239" data-name="Trazado 239" d="M-386.769,188.663a1.95,1.95,0,0,1-1.949-1.95v-9.757a1.95,1.95,0,0,1,2-1.9,1.951,1.951,0,0,1,1.9,1.9v9.757A1.951,1.951,0,0,1-386.769,188.663Z" transform="translate(439.451 -100.855)" fill="#f09372"/>
      <path id="Trazado_240" data-name="Trazado 240" d="M-378.718,188.339a1.951,1.951,0,0,1-1.952-1.95v-7.8a1.951,1.951,0,0,1,1.9-2,1.953,1.953,0,0,1,2,1.9v7.9A1.951,1.951,0,0,1-378.718,188.339Z" transform="translate(441.158 -100.531)" fill="#f09372"/>
      <g id="Grupo_14-2" data-name="Grupo 14-2" transform="translate(1.95 0.001)">
        <path id="Trazado_241" data-name="Trazado 241" d="M-406.616,182.452a2.619,2.619,0,0,0-.242-.2,4.927,4.927,0,0,0-2.692-.8,5.274,5.274,0,0,0-1.639.273,4.845,4.845,0,0,0-2.049,1.4,5.092,5.092,0,0,0,.448,6.868l4.586,4.586A103.186,103.186,0,0,1-397.648,207.5a17.239,17.239,0,0,0,13.873,7.123h4.879c.183,0,.364-.022.544-.028a17.141,17.141,0,0,1-13.441-7.095,103.189,103.189,0,0,0-10.555-12.917L-406.933,190a5.091,5.091,0,0,1-.45-6.868A4.7,4.7,0,0,1-406.616,182.452Z" transform="translate(432.061 -99.499)" fill="#efd2ff"/>
        <path id="Trazado_242" data-name="Trazado 242" d="M-384.553,135.1a11.836,11.836,0,0,0,2.285-.364,11.613,11.613,0,0,1-3.611-1.611h-.01a11.755,11.755,0,0,1-.858,1.881A11.353,11.353,0,0,0-384.553,135.1Z" transform="translate(437.919 -109.751)" fill="#fff"/>
        <path id="Trazado_243" data-name="Trazado 243" d="M-425.061,164.625h5.853a3.914,3.914,0,0,1-3.9-3.9v-5.853a13.659,13.659,0,0,1,13.658-13.658H-415.3a13.661,13.661,0,0,0-13.658,13.658v5.853A3.914,3.914,0,0,0-425.061,164.625Z" transform="translate(428.963 -108.036)" fill="#fff"/>
        <path id="Trazado_244" data-name="Trazado 244" d="M-400.411,122.3a11.653,11.653,0,0,1,3.581-1.624,11.761,11.761,0,0,0-2.24-.352,10.194,10.194,0,0,0-1.333-.019c-.295.018-.585.057-.87.093A11.475,11.475,0,0,1-400.411,122.3Z" transform="translate(434.837 -112.475)" fill="#fff"/>
        <path id="Trazado_245" data-name="Trazado 245" d="M-418.922,136.874a11.562,11.562,0,0,0,7.181,1.971,11.84,11.84,0,0,0,2.285-.364,11.694,11.694,0,0,1-8.443-14.221,11.7,11.7,0,0,1,8.359-8.422,11.377,11.377,0,0,0-2.24-.344,10.1,10.1,0,0,0-1.327-.018,11.691,11.691,0,0,0-11.011,12.334,11.694,11.694,0,0,0,5.193,9.07Z" transform="translate(429.987 -113.498)" fill="#fff"/>
        <path id="Trazado_246" data-name="Trazado 246" d="M-404.462,138.83a13.658,13.658,0,0,1-18.958-3.7,13.658,13.658,0,0,1,3.7-18.958,13.659,13.659,0,0,1,18.959,3.7,13.631,13.631,0,0,1,1.567,3.133l-3.691,1.27a9.731,9.731,0,0,0-12.422-5.929,9.733,9.733,0,0,0-5.93,12.422,9.735,9.735,0,0,0,12.423,5.93,9.714,9.714,0,0,0,2.152-1.078Z" transform="translate(429.644 -113.842)" fill="#fff"/>
      </g>
      <path id="Trazado_247" data-name="Trazado 247" d="M-423.161,131.278a2.1,2.1,0,0,0,1.444-2.2,11.718,11.718,0,0,1-.11-1.623,9.73,9.73,0,0,1,9.741-9.717,9.732,9.732,0,0,1,8.649,5.295,13.953,13.953,0,0,0-1.291,1.249,13.582,13.582,0,0,0-3.429,9.875,14.079,14.079,0,0,0,.307,2.124,9.449,9.449,0,0,1-4.97.941,2.147,2.147,0,0,0-2.073,1.651,1.846,1.846,0,0,0,1.4,2.2,1.853,1.853,0,0,0,.382.044,13.4,13.4,0,0,0,6.646-1.149,13.611,13.611,0,0,0,11.917,7.049c.272,0,.544,0,.818-.025a13.6,13.6,0,0,0,11.159-7.05,13.375,13.375,0,0,0,5.576,1.222c.273,0,.544-.008.819-.023a13.427,13.427,0,0,0,4.816-1.2,13.608,13.608,0,0,0,11.937,7.077c.27,0,.544,0,.817-.025a13.565,13.565,0,0,0,9.407-4.558,13.839,13.839,0,0,0,1.756-2.49,13.43,13.43,0,0,0,5.576,1.219c.273,0,.548,0,.821-.023a13.658,13.658,0,0,0,12.855-14.416,13.659,13.659,0,0,0-14.417-12.856,13.659,13.659,0,0,0-11.178,7.038,13.639,13.639,0,0,0-11.224,0,13.64,13.64,0,0,0-18.526-5.371,13.644,13.644,0,0,0-5.372,5.371,13.7,13.7,0,0,0-11.231.018,13.64,13.64,0,0,0-18.524-5.382,13.64,13.64,0,0,0-7.068,11.9,15.183,15.183,0,0,0,.161,2.262,1.864,1.864,0,0,0,2.059,1.648,1.826,1.826,0,0,0,.349-.073Zm80.746-13.512a9.751,9.751,0,0,1,10.32,9.148,9.752,9.752,0,0,1-9.148,10.32,9.751,9.751,0,0,1-4.824-.952,13.62,13.62,0,0,0-4.259-13.129c-.055-.05-.115-.091-.17-.137A9.666,9.666,0,0,1-342.415,117.766Zm-17.561,5.853q.293-.018.585-.018a9.794,9.794,0,0,1,9.805,9.782,9.793,9.793,0,0,1-9.782,9.8,9.793,9.793,0,0,1-9.8-9.782A9.793,9.793,0,0,1-359.977,123.619Zm-17.559-5.853a9.742,9.742,0,0,1,9.212,5.268,13.491,13.491,0,0,0-4.727,11.132,13.942,13.942,0,0,0,.308,2.147,9.688,9.688,0,0,1-8.458-.012,13.622,13.622,0,0,0-4.247-13.147c-.055-.05-.121-.091-.17-.137a9.665,9.665,0,0,1,8.084-5.251Zm-17.562,5.853q.293-.018.585-.018a9.8,9.8,0,0,1,9.806,9.783,9.8,9.8,0,0,1-9.783,9.805,9.793,9.793,0,0,1-9.8-9.783A9.8,9.8,0,0,1-395.1,123.619Z" transform="translate(431.599 -113.841)" fill="#264ecc"/>
      <path id="Trazado_248" data-name="Trazado 248" d="M-420.561,130.658a2.448,2.448,0,0,0-.734.121,2.263,2.263,0,0,0-.68.344,1.809,1.809,0,0,0-.684,1.333,2.131,2.131,0,0,0,.691,1.532,2.21,2.21,0,0,0,1.576.562l.39-.1a1.32,1.32,0,0,0,.358-.185,1.14,1.14,0,0,0,.295-.225,2.649,2.649,0,0,0,.242-.3,2.327,2.327,0,0,0,.338-1.436,2.163,2.163,0,0,0-.2-.67A1.791,1.791,0,0,0-420.561,130.658Z" transform="translate(432.251 -110.273)" fill="#264ecc"/>
      <path id="Trazado_249" data-name="Trazado 249" d="M-424.719,166.917h11.706a5.855,5.855,0,0,0,5.853,5.853h7.8v19.541l-1.924-1.922a6.7,6.7,0,0,0-4.827-2.01,6.83,6.83,0,0,0-5.164,2.342,7.024,7.024,0,0,0,.543,9.523l4.577,4.577A100.264,100.264,0,0,1-395.784,217.5a19.1,19.1,0,0,0,15.452,7.947h4.39a1.992,1.992,0,0,0,.242-.048,1.86,1.86,0,0,0,.242.048,19.043,19.043,0,0,0,19.025-19.023v-20.97a6.8,6.8,0,0,0-6.784-6.827,6.812,6.812,0,0,0-4,1.286,6.777,6.777,0,0,0-9.32-2.241q-.224.138-.436.291a6.745,6.745,0,0,0-8.727-2.555v-2.635h5.853a5.811,5.811,0,0,0,3.9-1.522,5.815,5.815,0,0,0,3.9,1.522h27.328a5.854,5.854,0,0,0,5.853-5.853h11.707a5.855,5.855,0,0,0,5.853-5.853v-5.853a15.629,15.629,0,0,0-15.61-15.615h-7.8a15.562,15.562,0,0,0-12.143,5.853h-3.03a15.566,15.566,0,0,0-12.143-5.853h-7.806a15.559,15.559,0,0,0-12.143,5.853h-3.03a15.551,15.551,0,0,0-12.142-5.853h-7.805a15.628,15.628,0,0,0-15.61,15.61v5.853A5.855,5.855,0,0,0-424.719,166.917Zm41.952,11.708a2.909,2.909,0,0,1,2.926,2.891c0,.012,0,.023,0,.035v12.684a1.951,1.951,0,0,0,2,1.9,1.954,1.954,0,0,0,1.9-1.9V183.5a2.926,2.926,0,0,1,2.926-2.926,2.928,2.928,0,0,1,2.927,2.926h0v10.732a1.951,1.951,0,0,0,2,1.9,1.954,1.954,0,0,0,1.9-1.9v-8.781a2.927,2.927,0,0,1,2.986-2.867,2.928,2.928,0,0,1,2.868,2.867v20.97a15.139,15.139,0,0,1-15.121,15.121,2.266,2.266,0,0,0-.242.05,2.4,2.4,0,0,0-.242-.05h-4.394a15.184,15.184,0,0,1-12.292-6.3,103.5,103.5,0,0,0-10.772-13.169l-4.577-4.577a3.153,3.153,0,0,1-.364-4.2,2.983,2.983,0,0,1,4.213-.212c.022.018.042.038.062.057l1.939,1.939a3.9,3.9,0,0,0,5.519.012,3.9,3.9,0,0,0,1.148-2.771V162.352a3.141,3.141,0,0,1,2.7-3.24,2.946,2.946,0,0,1,2.3.855,2.909,2.909,0,0,1,.85,2.073v32.195a1.951,1.951,0,0,0,2,1.9,1.954,1.954,0,0,0,1.9-1.9V181.55a2.926,2.926,0,0,1,2.927-2.925h0Zm2.927-9.757h-5.856v-6.829a6.784,6.784,0,0,0-2-4.833,6.865,6.865,0,0,0-5.321-2,7.01,7.01,0,0,0-6.346,7.142v6.516h-7.8a1.952,1.952,0,0,1-1.95-1.952v-5.853A11.718,11.718,0,0,1-397.4,149.357h7.8a11.717,11.717,0,0,1,11.707,11.707v5.853A1.951,1.951,0,0,1-379.839,168.868Zm37.072-1.952a1.952,1.952,0,0,1-1.952,1.952h-27.318a1.952,1.952,0,0,1-1.952-1.952h0v-5.853a11.722,11.722,0,0,1,11.707-11.707h7.806a11.72,11.72,0,0,1,11.707,11.707Zm5.853-23.414a11.722,11.722,0,0,1,11.708,11.707v5.853a1.952,1.952,0,0,1-1.952,1.95h-11.709v-1.95a15.636,15.636,0,0,0-12.708-15.334,11.686,11.686,0,0,1,6.855-2.233Zm-35.121,0a11.675,11.675,0,0,1,6.852,2.227,15.654,15.654,0,0,0-10.757,7.789,15.649,15.649,0,0,0-10.755-7.789,11.678,11.678,0,0,1,6.852-2.233Zm-54.634,11.707A11.717,11.717,0,0,1-414.961,143.5h7.8a11.673,11.673,0,0,1,6.852,2.233,15.629,15.629,0,0,0-12.707,15.328v1.95h-11.706a1.951,1.951,0,0,1-1.95-1.95Z" transform="translate(430.572 -108.376)" fill="#264ecc"/>
      <path id="Trazado_250" data-name="Trazado 250" d="M-389.995,204.671h7.8a1.951,1.951,0,0,0,2-1.9,1.951,1.951,0,0,0-1.9-2h-7.9a1.952,1.952,0,0,0-1.9,2A1.952,1.952,0,0,0-389.995,204.671Z" transform="translate(438.776 -95.4)" fill="#7821a0"/>
    </g>
    <g id="Grupo_25" data-name="Grupo 25" transform="translate(-412.871 160.659)">
      <path id="Trazado_297" data-name="Trazado 297" d="M-366.312,175.9a6.8,6.8,0,0,0-4,1.286,6.778,6.778,0,0,0-9.32-2.241c-.149.091-.295.189-.436.291a6.745,6.745,0,0,0-8.727-2.555v-13.46a6.781,6.781,0,0,0-1.988-4.744,6.866,6.866,0,0,0-5.321-2,7.005,7.005,0,0,0-6.342,7.092v30.009l-1.924-1.922a6.7,6.7,0,0,0-4.827-2.01,6.828,6.828,0,0,0-5.164,2.342,7.023,7.023,0,0,0,.543,9.523l4.577,4.577a100.379,100.379,0,0,1,10.365,12.683,19.1,19.1,0,0,0,15.452,7.947h4.39a2.093,2.093,0,0,0,.242-.048,2.089,2.089,0,0,0,.242.048A19.044,19.044,0,0,0-359.527,203.7v-20.97A6.806,6.806,0,0,0-366.312,175.9Zm2.887,27.794a15.138,15.138,0,0,1-15.121,15.121,2.394,2.394,0,0,0-.242.05,2.4,2.4,0,0,0-.242-.05h-4.393a15.181,15.181,0,0,1-12.292-6.3,103.6,103.6,0,0,0-10.772-13.169l-4.577-4.577a3.152,3.152,0,0,1-.364-4.2,2.983,2.983,0,0,1,4.213-.212l.062.057,1.939,1.939a3.9,3.9,0,0,0,5.518.012,3.9,3.9,0,0,0,1.149-2.771V159.623a3.141,3.141,0,0,1,2.7-3.24,2.948,2.948,0,0,1,2.3.855,2.913,2.913,0,0,1,.849,2.073V191.5a1.952,1.952,0,0,0,2,1.9,1.952,1.952,0,0,0,1.9-1.9V178.821a2.926,2.926,0,0,1,2.927-2.925h0a2.91,2.91,0,0,1,2.927,2.891v12.719a1.952,1.952,0,0,0,2,1.9,1.952,1.952,0,0,0,1.9-1.9V180.773a2.926,2.926,0,0,1,2.926-2.926,2.927,2.927,0,0,1,2.927,2.926v10.732a1.952,1.952,0,0,0,2,1.9,1.952,1.952,0,0,0,1.9-1.9v-8.781a2.927,2.927,0,0,1,2.987-2.867,2.926,2.926,0,0,1,2.867,2.867Z" transform="translate(415.969 -152.465)" fill="#7821a0"/>
    </g>
  </g>
</svg>
