<svg xmlns="http://www.w3.org/2000/svg" width="24.721" height="30.919" viewBox="0 0 24.721 30.919"><defs><style>.a{fill:#c4c4c4;}</style></defs><g transform="translate(-6.761 -3.93)"><path class="a" d="M16.9,30.858a2.243,2.243,0,0,0,2.289-2.522H14.6A2.244,2.244,0,0,0,16.9,30.858Z" transform="translate(2.204 3.992)"/><path class="a" d="M31.169,28.759c-1.19-1.7-3.532-2.7-3.532-10.315,0-7.818-3.184-10.96-6.151-11.715-.278-.075-.479-.176-.479-.494V5.992a1.988,1.988,0,0,0-1.886-2.061,1.982,1.982,0,0,0-1.886,2.061v.243c0,.31-.2.419-.479.494-2.975.763-6.151,3.9-6.151,11.715,0,7.617-2.342,8.606-3.532,10.315A1.676,1.676,0,0,0,8.3,31.424H29.948A1.677,1.677,0,0,0,31.169,28.759Z" transform="translate(0 0)"/></g></svg>