<svg xmlns="http://www.w3.org/2000/svg" width="17.776" height="19.529" viewBox="0 0 17.776 19.529"><defs><style>.a{fill:none;stroke:#828282;stroke-linecap:round;stroke-linejoin:round;stroke-width:2px;}</style></defs><g transform="translate(1 1)"><path class="a" d="M27.759,5.629A2.629,2.629,0,1,1,25.129,3,2.629,2.629,0,0,1,27.759,5.629Z" transform="translate(-11.983 -3)"/><path class="a" d="M9.759,16.129A2.629,2.629,0,1,1,7.129,13.5,2.629,2.629,0,0,1,9.759,16.129Z" transform="translate(-4.5 -7.365)"/><path class="a" d="M27.759,26.629A2.629,2.629,0,1,1,25.129,24,2.629,2.629,0,0,1,27.759,26.629Z" transform="translate(-11.983 -11.73)"/><path class="a" d="M12.885,20.265l5.986,3.488" transform="translate(-7.986 -10.177)"/><path class="a" d="M18.862,9.765l-5.977,3.488" transform="translate(-7.986 -5.812)"/></g></svg>