<svg xmlns="http://www.w3.org/2000/svg" width="173" height="173" viewBox="0 0 173 173"><defs><style>.a{opacity:0.21;}.b{fill:#fff;}</style></defs><g class="a" transform="translate(0 -0.312)"><circle class="b" cx="11.5" cy="11.5" r="11.5" transform="translate(0 0.312)"/><circle class="b" cx="11.5" cy="11.5" r="11.5" transform="translate(0 50.312)"/><circle class="b" cx="11.5" cy="11.5" r="11.5" transform="translate(0 100.312)"/><circle class="b" cx="11.5" cy="11.5" r="11.5" transform="translate(0 150.312)"/><circle class="b" cx="11.5" cy="11.5" r="11.5" transform="translate(50 0.312)"/><circle class="b" cx="11.5" cy="11.5" r="11.5" transform="translate(50 50.312)"/><circle class="b" cx="11.5" cy="11.5" r="11.5" transform="translate(50 100.312)"/><circle class="b" cx="11.5" cy="11.5" r="11.5" transform="translate(50 150.312)"/><circle class="b" cx="11.5" cy="11.5" r="11.5" transform="translate(100 0.312)"/><circle class="b" cx="11.5" cy="11.5" r="11.5" transform="translate(100 50.312)"/><circle class="b" cx="11.5" cy="11.5" r="11.5" transform="translate(100 100.312)"/><circle class="b" cx="11.5" cy="11.5" r="11.5" transform="translate(100 150.312)"/><circle class="b" cx="11.5" cy="11.5" r="11.5" transform="translate(150 0.312)"/><circle class="b" cx="11.5" cy="11.5" r="11.5" transform="translate(150 50.312)"/><circle class="b" cx="11.5" cy="11.5" r="11.5" transform="translate(150 100.312)"/><circle class="b" cx="11.5" cy="11.5" r="11.5" transform="translate(150 150.312)"/></g></svg>