<svg xmlns="http://www.w3.org/2000/svg" width="15.22" height="19.036" viewBox="0 0 15.22 19.036"><defs><style>.a{fill:#c4c4c4;}</style></defs><g transform="translate(-6.761 -3.93)"><path class="a" d="M16.9,30.858a2.243,2.243,0,0,0,2.289-2.522H14.6A2.244,2.244,0,0,0,16.9,30.858Z" transform="translate(-2.536 -7.891)"/><path class="a" d="M21.788,18.028c-.733-.966-2.174-1.532-2.174-5.857,0-4.439-1.96-6.223-3.787-6.651-.171-.043-.295-.1-.295-.281V5.1a1.161,1.161,0,1,0-2.322,0v.138c0,.176-.124.238-.295.281-1.832.433-3.787,2.212-3.787,6.651,0,4.325-1.442,4.886-2.174,5.857a.944.944,0,0,0,.756,1.513H21.037A.945.945,0,0,0,21.788,18.028Z" transform="translate(0 0)"/></g></svg>