<svg id="social-media-facebook-dark" xmlns="http://www.w3.org/2000/svg" width="50" height="50" viewBox="0 0 50 50">
  <rect id="Rectangle" width="50" height="50" rx="25" fill="#fff"/>
  <g id="Facebook" transform="translate(19 13)">
    <path id="_" data-name="" d="M11.571.161V3.7h-2.1a1.968,1.968,0,0,0-1.554.482,2.218,2.218,0,0,0-.4,1.446V8.156h3.924l-.522,3.964h-3.4V22.286h-4.1V12.121H0V8.156H3.415V5.237A5.181,5.181,0,0,1,4.808,1.373,5.055,5.055,0,0,1,8.518,0,22.155,22.155,0,0,1,11.571.161Z" transform="translate(0.415 0.429)" fill="#264ecc"/>
  </g>
</svg>
